<svg width="248" height="248" viewBox="0 0 248 248" fill="none" xmlns="http://www.w3.org/2000/svg">
<path d="M220.148 74.2487L127.148 115.582L120.853 101.418L213.853 60.0846L220.148 74.2487ZM116.251 222.167V108.5H131.751V222.167H116.251ZM120.853 115.582L27.8534 74.2487L34.1484 60.0846L127.148 101.418L120.853 115.582Z" fill="#121212"/>
<path d="M217 176.804V71.1959C217 68.7457 215.557 66.5254 213.318 65.5303L126.518 26.9525C124.915 26.24 123.086 26.24 121.482 26.9525L34.6818 65.5303C32.4425 66.5254 31 68.7457 31 71.1959V176.804C31 179.254 32.4425 181.475 34.6818 182.47L121.482 221.048C123.086 221.76 124.915 221.76 126.518 221.048L213.318 182.47C215.557 181.475 217 179.254 217 176.804Z" stroke="#121212" stroke-width="13.4333" stroke-linecap="round" stroke-linejoin="round"/>
<path d="M170.5 46.5L81.1818 86.197C78.9425 87.1921 77.5 89.4124 77.5 91.8625V129.167" stroke="#121212" stroke-width="13.4333" stroke-linecap="round" stroke-linejoin="round"/>
</svg>
